<svg width="160" height="180" viewBox="0 0 160 180" fill="none" xmlns="http://www.w3.org/2000/svg">
<rect width="160" height="180" rx="10" fill="#040707"/>
<rect x="5" y="5" width="150" height="150" rx="6" fill="white"/>
<mask id="mask0_103_857" style="mask-type:alpha" maskUnits="userSpaceOnUse" x="5" y="5" width="150" height="150">
<rect x="5" y="5" width="150" height="150" rx="6" fill="white"/>
</mask>
<g mask="url(#mask0_103_857)">
<path d="M159.225 0.774658H-0.281677V160.282H159.225V0.774658Z" fill="white"/>
<path d="M14.4508 10.6907H9.6344V15.5071H14.4508V10.6907Z" fill="black"/>
<path d="M19.2671 10.6907H14.4507V15.5071H19.2671V10.6907Z" fill="black"/>
<path d="M24.0835 10.6907H19.2672V15.5071H24.0835V10.6907Z" fill="black"/>
<path d="M28.8999 10.6907H24.0835V15.5071H28.8999V10.6907Z" fill="black"/>
<path d="M33.7163 10.6907H28.8999V15.5071H33.7163V10.6907Z" fill="black"/>
<path d="M38.5326 10.6907H33.7162V15.5071H38.5326V10.6907Z" fill="black"/>
<path d="M43.349 10.6907H38.5326V15.5071H43.349V10.6907Z" fill="black"/>
<path d="M48.1654 10.6907H43.349V15.5071H48.1654V10.6907Z" fill="white"/>
<path d="M52.9818 10.6907H48.1654V15.5071H52.9818V10.6907Z" fill="black"/>
<path d="M57.7981 10.6907H52.9818V15.5071H57.7981V10.6907Z" fill="white"/>
<path d="M62.6145 10.6907H57.7982V15.5071H62.6145V10.6907Z" fill="white"/>
<path d="M67.4309 10.6907H62.6145V15.5071H67.4309V10.6907Z" fill="black"/>
<path d="M72.2473 10.6907H67.4309V15.5071H72.2473V10.6907Z" fill="black"/>
<path d="M77.0637 10.6907H72.2473V15.5071H77.0637V10.6907Z" fill="black"/>
<path d="M81.88 10.6907H77.0636V15.5071H81.88V10.6907Z" fill="black"/>
<path d="M86.6964 10.6907H81.8801V15.5071H86.6964V10.6907Z" fill="white"/>
<path d="M91.5127 10.6907H86.6964V15.5071H91.5127V10.6907Z" fill="white"/>
<path d="M96.3291 10.6907H91.5128V15.5071H96.3291V10.6907Z" fill="black"/>
<path d="M101.146 10.6907H96.3292V15.5071H101.146V10.6907Z" fill="white"/>
<path d="M105.962 10.6907H101.146V15.5071H105.962V10.6907Z" fill="white"/>
<path d="M110.778 10.6907H105.962V15.5071H110.778V10.6907Z" fill="black"/>
<path d="M115.595 10.6907H110.778V15.5071H115.595V10.6907Z" fill="white"/>
<path d="M120.411 10.6907H115.595V15.5071H120.411V10.6907Z" fill="black"/>
<path d="M125.227 10.6907H120.411V15.5071H125.227V10.6907Z" fill="black"/>
<path d="M130.044 10.6907H125.227V15.5071H130.044V10.6907Z" fill="black"/>
<path d="M134.86 10.6907H130.044V15.5071H134.86V10.6907Z" fill="black"/>
<path d="M139.676 10.6907H134.86V15.5071H139.676V10.6907Z" fill="black"/>
<path d="M144.493 10.6907H139.677V15.5071H144.493V10.6907Z" fill="black"/>
<path d="M149.309 10.6907H144.493V15.5071H149.309V10.6907Z" fill="black"/>
<path d="M14.4508 15.5071H9.6344V20.3235H14.4508V15.5071Z" fill="black"/>
<path d="M19.2671 15.5071H14.4507V20.3235H19.2671V15.5071Z" fill="white"/>
<path d="M24.0835 15.5071H19.2672V20.3235H24.0835V15.5071Z" fill="white"/>
<path d="M28.8999 15.5071H24.0835V20.3235H28.8999V15.5071Z" fill="white"/>
<path d="M33.7163 15.5071H28.8999V20.3235H33.7163V15.5071Z" fill="white"/>
<path d="M38.5326 15.5071H33.7162V20.3235H38.5326V15.5071Z" fill="white"/>
<path d="M43.349 15.5071H38.5326V20.3235H43.349V15.5071Z" fill="black"/>
<path d="M48.1654 15.5071H43.349V20.3235H48.1654V15.5071Z" fill="white"/>
<path d="M52.9818 15.5071H48.1654V20.3235H52.9818V15.5071Z" fill="white"/>
<path d="M57.7981 15.5071H52.9818V20.3235H57.7981V15.5071Z" fill="black"/>
<path d="M62.6145 15.5071H57.7982V20.3235H62.6145V15.5071Z" fill="black"/>
<path d="M67.4309 15.5071H62.6145V20.3235H67.4309V15.5071Z" fill="white"/>
<path d="M72.2473 15.5071H67.4309V20.3235H72.2473V15.5071Z" fill="white"/>
<path d="M77.0637 15.5071H72.2473V20.3235H77.0637V15.5071Z" fill="white"/>
<path d="M81.88 15.5071H77.0636V20.3235H81.88V15.5071Z" fill="black"/>
<path d="M86.6964 15.5071H81.8801V20.3235H86.6964V15.5071Z" fill="white"/>
<path d="M91.5127 15.5071H86.6964V20.3235H91.5127V15.5071Z" fill="black"/>
<path d="M96.3291 15.5071H91.5128V20.3235H96.3291V15.5071Z" fill="black"/>
<path d="M101.146 15.5071H96.3292V20.3235H101.146V15.5071Z" fill="white"/>
<path d="M105.962 15.5071H101.146V20.3235H105.962V15.5071Z" fill="black"/>
<path d="M110.778 15.5071H105.962V20.3235H110.778V15.5071Z" fill="white"/>
<path d="M115.595 15.5071H110.778V20.3235H115.595V15.5071Z" fill="white"/>
<path d="M120.411 15.5071H115.595V20.3235H120.411V15.5071Z" fill="black"/>
<path d="M125.227 15.5071H120.411V20.3235H125.227V15.5071Z" fill="white"/>
<path d="M130.044 15.5071H125.227V20.3235H130.044V15.5071Z" fill="white"/>
<path d="M134.86 15.5071H130.044V20.3235H134.86V15.5071Z" fill="white"/>
<path d="M139.676 15.5071H134.86V20.3235H139.676V15.5071Z" fill="white"/>
<path d="M144.493 15.5071H139.677V20.3235H144.493V15.5071Z" fill="white"/>
<path d="M149.309 15.5071H144.493V20.3235H149.309V15.5071Z" fill="black"/>
<path d="M14.4508 20.3232H9.6344V25.1396H14.4508V20.3232Z" fill="black"/>
<path d="M19.2671 20.3232H14.4507V25.1396H19.2671V20.3232Z" fill="white"/>
<path d="M24.0835 20.3232H19.2672V25.1396H24.0835V20.3232Z" fill="black"/>
<path d="M28.8999 20.3232H24.0835V25.1396H28.8999V20.3232Z" fill="black"/>
<path d="M33.7163 20.3232H28.8999V25.1396H33.7163V20.3232Z" fill="black"/>
<path d="M38.5326 20.3232H33.7162V25.1396H38.5326V20.3232Z" fill="white"/>
<path d="M43.349 20.3232H38.5326V25.1396H43.349V20.3232Z" fill="black"/>
<path d="M48.1654 20.3232H43.349V25.1396H48.1654V20.3232Z" fill="white"/>
<path d="M52.9818 20.3232H48.1654V25.1396H52.9818V20.3232Z" fill="white"/>
<path d="M57.7981 20.3232H52.9818V25.1396H57.7981V20.3232Z" fill="white"/>
<path d="M62.6145 20.3232H57.7982V25.1396H62.6145V20.3232Z" fill="black"/>
<path d="M67.4309 20.3232H62.6145V25.1396H67.4309V20.3232Z" fill="white"/>
<path d="M72.2473 20.3232H67.4309V25.1396H72.2473V20.3232Z" fill="black"/>
<path d="M77.0637 20.3232H72.2473V25.1396H77.0637V20.3232Z" fill="black"/>
<path d="M81.88 20.3232H77.0636V25.1396H81.88V20.3232Z" fill="white"/>
<path d="M86.6964 20.3232H81.8801V25.1396H86.6964V20.3232Z" fill="black"/>
<path d="M91.5127 20.3232H86.6964V25.1396H91.5127V20.3232Z" fill="white"/>
<path d="M96.3291 20.3232H91.5128V25.1396H96.3291V20.3232Z" fill="white"/>
<path d="M101.146 20.3232H96.3292V25.1396H101.146V20.3232Z" fill="black"/>
<path d="M105.962 20.3232H101.146V25.1396H105.962V20.3232Z" fill="white"/>
<path d="M110.778 20.3232H105.962V25.1396H110.778V20.3232Z" fill="black"/>
<path d="M115.595 20.3232H110.778V25.1396H115.595V20.3232Z" fill="white"/>
<path d="M120.411 20.3232H115.595V25.1396H120.411V20.3232Z" fill="black"/>
<path d="M125.227 20.3232H120.411V25.1396H125.227V20.3232Z" fill="white"/>
<path d="M130.044 20.3232H125.227V25.1396H130.044V20.3232Z" fill="black"/>
<path d="M134.86 20.3232H130.044V25.1396H134.86V20.3232Z" fill="black"/>
<path d="M139.676 20.3232H134.86V25.1396H139.676V20.3232Z" fill="black"/>
<path d="M144.493 20.3232H139.677V25.1396H144.493V20.3232Z" fill="white"/>
<path d="M149.309 20.3232H144.493V25.1396H149.309V20.3232Z" fill="black"/>
<path d="M14.4508 25.1399H9.6344V29.9563H14.4508V25.1399Z" fill="black"/>
<path d="M19.2671 25.1399H14.4507V29.9563H19.2671V25.1399Z" fill="white"/>
<path d="M24.0835 25.1399H19.2672V29.9563H24.0835V25.1399Z" fill="black"/>
<path d="M28.8999 25.1399H24.0835V29.9563H28.8999V25.1399Z" fill="black"/>
<path d="M33.7163 25.1399H28.8999V29.9563H33.7163V25.1399Z" fill="black"/>
<path d="M38.5326 25.1399H33.7162V29.9563H38.5326V25.1399Z" fill="white"/>
<path d="M43.349 25.1399H38.5326V29.9563H43.349V25.1399Z" fill="black"/>
<path d="M48.1654 25.1399H43.349V29.9563H48.1654V25.1399Z" fill="white"/>
<path d="M52.9818 25.1399H48.1654V29.9563H52.9818V25.1399Z" fill="white"/>
<path d="M57.7981 25.1399H52.9818V29.9563H57.7981V25.1399Z" fill="white"/>
<path d="M62.6145 25.1399H57.7982V29.9563H62.6145V25.1399Z" fill="white"/>
<path d="M67.4309 25.1399H62.6145V29.9563H67.4309V25.1399Z" fill="white"/>
<path d="M72.2473 25.1399H67.4309V29.9563H72.2473V25.1399Z" fill="black"/>
<path d="M77.0637 25.1399H72.2473V29.9563H77.0637V25.1399Z" fill="black"/>
<path d="M81.88 25.1399H77.0636V29.9563H81.88V25.1399Z" fill="black"/>
<path d="M86.6964 25.1399H81.8801V29.9563H86.6964V25.1399Z" fill="white"/>
<path d="M91.5127 25.1399H86.6964V29.9563H91.5127V25.1399Z" fill="black"/>
<path d="M96.3291 25.1399H91.5128V29.9563H96.3291V25.1399Z" fill="black"/>
<path d="M101.146 25.1399H96.3292V29.9563H101.146V25.1399Z" fill="white"/>
<path d="M105.962 25.1399H101.146V29.9563H105.962V25.1399Z" fill="black"/>
<path d="M110.778 25.1399H105.962V29.9563H110.778V25.1399Z" fill="black"/>
<path d="M115.595 25.1399H110.778V29.9563H115.595V25.1399Z" fill="white"/>
<path d="M120.411 25.1399H115.595V29.9563H120.411V25.1399Z" fill="black"/>
<path d="M125.227 25.1399H120.411V29.9563H125.227V25.1399Z" fill="white"/>
<path d="M130.044 25.1399H125.227V29.9563H130.044V25.1399Z" fill="black"/>
<path d="M134.86 25.1399H130.044V29.9563H134.86V25.1399Z" fill="black"/>
<path d="M139.676 25.1399H134.86V29.9563H139.676V25.1399Z" fill="black"/>
<path d="M144.493 25.1399H139.677V29.9563H144.493V25.1399Z" fill="white"/>
<path d="M149.309 25.1399H144.493V29.9563H149.309V25.1399Z" fill="black"/>
<path d="M14.4508 29.9563H9.6344V34.7727H14.4508V29.9563Z" fill="black"/>
<path d="M19.2671 29.9563H14.4507V34.7727H19.2671V29.9563Z" fill="white"/>
<path d="M24.0835 29.9563H19.2672V34.7727H24.0835V29.9563Z" fill="black"/>
<path d="M28.8999 29.9563H24.0835V34.7727H28.8999V29.9563Z" fill="black"/>
<path d="M33.7163 29.9563H28.8999V34.7727H33.7163V29.9563Z" fill="black"/>
<path d="M38.5326 29.9563H33.7162V34.7727H38.5326V29.9563Z" fill="white"/>
<path d="M43.349 29.9563H38.5326V34.7727H43.349V29.9563Z" fill="black"/>
<path d="M48.1654 29.9563H43.349V34.7727H48.1654V29.9563Z" fill="white"/>
<path d="M52.9818 29.9563H48.1654V34.7727H52.9818V29.9563Z" fill="white"/>
<path d="M57.7981 29.9563H52.9818V34.7727H57.7981V29.9563Z" fill="black"/>
<path d="M62.6145 29.9563H57.7982V34.7727H62.6145V29.9563Z" fill="white"/>
<path d="M67.4309 29.9563H62.6145V34.7727H67.4309V29.9563Z" fill="black"/>
<path d="M72.2473 29.9563H67.4309V34.7727H72.2473V29.9563Z" fill="white"/>
<path d="M77.0637 29.9563H72.2473V34.7727H77.0637V29.9563Z" fill="black"/>
<path d="M81.88 29.9563H77.0636V34.7727H81.88V29.9563Z" fill="white"/>
<path d="M86.6964 29.9563H81.8801V34.7727H86.6964V29.9563Z" fill="white"/>
<path d="M91.5127 29.9563H86.6964V34.7727H91.5127V29.9563Z" fill="black"/>
<path d="M96.3291 29.9563H91.5128V34.7727H96.3291V29.9563Z" fill="white"/>
<path d="M101.146 29.9563H96.3292V34.7727H101.146V29.9563Z" fill="white"/>
<path d="M105.962 29.9563H101.146V34.7727H105.962V29.9563Z" fill="black"/>
<path d="M110.778 29.9563H105.962V34.7727H110.778V29.9563Z" fill="black"/>
<path d="M115.595 29.9563H110.778V34.7727H115.595V29.9563Z" fill="white"/>
<path d="M120.411 29.9563H115.595V34.7727H120.411V29.9563Z" fill="black"/>
<path d="M125.227 29.9563H120.411V34.7727H125.227V29.9563Z" fill="white"/>
<path d="M130.044 29.9563H125.227V34.7727H130.044V29.9563Z" fill="black"/>
<path d="M134.86 29.9563H130.044V34.7727H134.86V29.9563Z" fill="black"/>
<path d="M139.676 29.9563H134.86V34.7727H139.676V29.9563Z" fill="black"/>
<path d="M144.493 29.9563H139.677V34.7727H144.493V29.9563Z" fill="white"/>
<path d="M149.309 29.9563H144.493V34.7727H149.309V29.9563Z" fill="black"/>
<path d="M14.4508 34.7727H9.6344V39.5891H14.4508V34.7727Z" fill="black"/>
<path d="M19.2671 34.7727H14.4507V39.5891H19.2671V34.7727Z" fill="white"/>
<path d="M24.0835 34.7727H19.2672V39.5891H24.0835V34.7727Z" fill="white"/>
<path d="M28.8999 34.7727H24.0835V39.5891H28.8999V34.7727Z" fill="white"/>
<path d="M33.7163 34.7727H28.8999V39.5891H33.7163V34.7727Z" fill="white"/>
<path d="M38.5326 34.7727H33.7162V39.5891H38.5326V34.7727Z" fill="white"/>
<path d="M43.349 34.7727H38.5326V39.5891H43.349V34.7727Z" fill="black"/>
<path d="M48.1654 34.7727H43.349V39.5891H48.1654V34.7727Z" fill="white"/>
<path d="M52.9818 34.7727H48.1654V39.5891H52.9818V34.7727Z" fill="white"/>
<path d="M57.7981 34.7727H52.9818V39.5891H57.7981V34.7727Z" fill="white"/>
<path d="M62.6145 34.7727H57.7982V39.5891H62.6145V34.7727Z" fill="black"/>
<path d="M67.4309 34.7727H62.6145V39.5891H67.4309V34.7727Z" fill="white"/>
<path d="M72.2473 34.7727H67.4309V39.5891H72.2473V34.7727Z" fill="black"/>
<path d="M77.0637 34.7727H72.2473V39.5891H77.0637V34.7727Z" fill="black"/>
<path d="M81.88 34.7727H77.0636V39.5891H81.88V34.7727Z" fill="black"/>
<path d="M86.6964 34.7727H81.8801V39.5891H86.6964V34.7727Z" fill="white"/>
<path d="M91.5127 34.7727H86.6964V39.5891H91.5127V34.7727Z" fill="white"/>
<path d="M96.3291 34.7727H91.5128V39.5891H96.3291V34.7727Z" fill="white"/>
<path d="M101.146 34.7727H96.3292V39.5891H101.146V34.7727Z" fill="black"/>
<path d="M105.962 34.7727H101.146V39.5891H105.962V34.7727Z" fill="white"/>
<path d="M110.778 34.7727H105.962V39.5891H110.778V34.7727Z" fill="black"/>
<path d="M115.595 34.7727H110.778V39.5891H115.595V34.7727Z" fill="white"/>
<path d="M120.411 34.7727H115.595V39.5891H120.411V34.7727Z" fill="black"/>
<path d="M125.227 34.7727H120.411V39.5891H125.227V34.7727Z" fill="white"/>
<path d="M130.044 34.7727H125.227V39.5891H130.044V34.7727Z" fill="white"/>
<path d="M134.86 34.7727H130.044V39.5891H134.86V34.7727Z" fill="white"/>
<path d="M139.676 34.7727H134.86V39.5891H139.676V34.7727Z" fill="white"/>
<path d="M144.493 34.7727H139.677V39.5891H144.493V34.7727Z" fill="white"/>
<path d="M149.309 34.7727H144.493V39.5891H149.309V34.7727Z" fill="black"/>
<path d="M14.4508 39.5889H9.6344V44.4052H14.4508V39.5889Z" fill="black"/>
<path d="M19.2671 39.5889H14.4507V44.4052H19.2671V39.5889Z" fill="black"/>
<path d="M24.0835 39.5889H19.2672V44.4052H24.0835V39.5889Z" fill="black"/>
<path d="M28.8999 39.5889H24.0835V44.4052H28.8999V39.5889Z" fill="black"/>
<path d="M33.7163 39.5889H28.8999V44.4052H33.7163V39.5889Z" fill="black"/>
<path d="M38.5326 39.5889H33.7162V44.4052H38.5326V39.5889Z" fill="black"/>
<path d="M43.349 39.5889H38.5326V44.4052H43.349V39.5889Z" fill="black"/>
<path d="M48.1654 39.5889H43.349V44.4052H48.1654V39.5889Z" fill="white"/>
<path d="M52.9818 39.5889H48.1654V44.4052H52.9818V39.5889Z" fill="black"/>
<path d="M57.7981 39.5889H52.9818V44.4052H57.7981V39.5889Z" fill="white"/>
<path d="M62.6145 39.5889H57.7982V44.4052H62.6145V39.5889Z" fill="black"/>
<path d="M67.4309 39.5889H62.6145V44.4052H67.4309V39.5889Z" fill="white"/>
<path d="M72.2473 39.5889H67.4309V44.4052H72.2473V39.5889Z" fill="black"/>
<path d="M77.0637 39.5889H72.2473V44.4052H77.0637V39.5889Z" fill="white"/>
<path d="M81.88 39.5889H77.0636V44.4052H81.88V39.5889Z" fill="black"/>
<path d="M86.6964 39.5889H81.8801V44.4052H86.6964V39.5889Z" fill="white"/>
<path d="M91.5127 39.5889H86.6964V44.4052H91.5127V39.5889Z" fill="black"/>
<path d="M96.3291 39.5889H91.5128V44.4052H96.3291V39.5889Z" fill="white"/>
<path d="M101.146 39.5889H96.3292V44.4052H101.146V39.5889Z" fill="black"/>
<path d="M105.962 39.5889H101.146V44.4052H105.962V39.5889Z" fill="white"/>
<path d="M110.778 39.5889H105.962V44.4052H110.778V39.5889Z" fill="black"/>
<path d="M115.595 39.5889H110.778V44.4052H115.595V39.5889Z" fill="white"/>
<path d="M120.411 39.5889H115.595V44.4052H120.411V39.5889Z" fill="black"/>
<path d="M125.227 39.5889H120.411V44.4052H125.227V39.5889Z" fill="black"/>
<path d="M130.044 39.5889H125.227V44.4052H130.044V39.5889Z" fill="black"/>
<path d="M134.86 39.5889H130.044V44.4052H134.86V39.5889Z" fill="black"/>
<path d="M139.676 39.5889H134.86V44.4052H139.676V39.5889Z" fill="black"/>
<path d="M144.493 39.5889H139.677V44.4052H144.493V39.5889Z" fill="black"/>
<path d="M149.309 39.5889H144.493V44.4052H149.309V39.5889Z" fill="black"/>
<path d="M14.4508 44.4053H9.6344V49.2217H14.4508V44.4053Z" fill="white"/>
<path d="M19.2671 44.4053H14.4507V49.2217H19.2671V44.4053Z" fill="white"/>
<path d="M24.0835 44.4053H19.2672V49.2217H24.0835V44.4053Z" fill="white"/>
<path d="M28.8999 44.4053H24.0835V49.2217H28.8999V44.4053Z" fill="white"/>
<path d="M33.7163 44.4053H28.8999V49.2217H33.7163V44.4053Z" fill="white"/>
<path d="M38.5326 44.4053H33.7162V49.2217H38.5326V44.4053Z" fill="white"/>
<path d="M43.349 44.4053H38.5326V49.2217H43.349V44.4053Z" fill="white"/>
<path d="M48.1654 44.4053H43.349V49.2217H48.1654V44.4053Z" fill="white"/>
<path d="M52.9818 44.4053H48.1654V49.2217H52.9818V44.4053Z" fill="black"/>
<path d="M57.7981 44.4053H52.9818V49.2217H57.7981V44.4053Z" fill="white"/>
<path d="M62.6145 44.4053H57.7982V49.2217H62.6145V44.4053Z" fill="black"/>
<path d="M67.4309 44.4053H62.6145V49.2217H67.4309V44.4053Z" fill="black"/>
<path d="M72.2473 44.4053H67.4309V49.2217H72.2473V44.4053Z" fill="white"/>
<path d="M77.0637 44.4053H72.2473V49.2217H77.0637V44.4053Z" fill="black"/>
<path d="M81.88 44.4053H77.0636V49.2217H81.88V44.4053Z" fill="white"/>
<path d="M86.6964 44.4053H81.8801V49.2217H86.6964V44.4053Z" fill="black"/>
<path d="M91.5127 44.4053H86.6964V49.2217H91.5127V44.4053Z" fill="black"/>
<path d="M96.3291 44.4053H91.5128V49.2217H96.3291V44.4053Z" fill="white"/>
<path d="M101.146 44.4053H96.3292V49.2217H101.146V44.4053Z" fill="black"/>
<path d="M105.962 44.4053H101.146V49.2217H105.962V44.4053Z" fill="black"/>
<path d="M110.778 44.4053H105.962V49.2217H110.778V44.4053Z" fill="white"/>
<path d="M115.595 44.4053H110.778V49.2217H115.595V44.4053Z" fill="white"/>
<path d="M120.411 44.4053H115.595V49.2217H120.411V44.4053Z" fill="white"/>
<path d="M125.227 44.4053H120.411V49.2217H125.227V44.4053Z" fill="white"/>
<path d="M130.044 44.4053H125.227V49.2217H130.044V44.4053Z" fill="white"/>
<path d="M134.86 44.4053H130.044V49.2217H134.86V44.4053Z" fill="white"/>
<path d="M139.676 44.4053H134.86V49.2217H139.676V44.4053Z" fill="white"/>
<path d="M144.493 44.4053H139.677V49.2217H144.493V44.4053Z" fill="white"/>
<path d="M149.309 44.4053H144.493V49.2217H149.309V44.4053Z" fill="white"/>
<path d="M14.4508 49.2217H9.6344V54.0381H14.4508V49.2217Z" fill="black"/>
<path d="M19.2671 49.2217H14.4507V54.0381H19.2671V49.2217Z" fill="black"/>
<path d="M24.0835 49.2217H19.2672V54.0381H24.0835V49.2217Z" fill="white"/>
<path d="M28.8999 49.2217H24.0835V54.0381H28.8999V49.2217Z" fill="black"/>
<path d="M33.7163 49.2217H28.8999V54.0381H33.7163V49.2217Z" fill="black"/>
<path d="M38.5326 49.2217H33.7162V54.0381H38.5326V49.2217Z" fill="white"/>
<path d="M43.349 49.2217H38.5326V54.0381H43.349V49.2217Z" fill="black"/>
<path d="M48.1654 49.2217H43.349V54.0381H48.1654V49.2217Z" fill="white"/>
<path d="M52.9818 49.2217H48.1654V54.0381H52.9818V49.2217Z" fill="white"/>
<path d="M57.7981 49.2217H52.9818V54.0381H57.7981V49.2217Z" fill="black"/>
<path d="M62.6145 49.2217H57.7982V54.0381H62.6145V49.2217Z" fill="black"/>
<path d="M67.4309 49.2217H62.6145V54.0381H67.4309V49.2217Z" fill="black"/>
<path d="M72.2473 49.2217H67.4309V54.0381H72.2473V49.2217Z" fill="black"/>
<path d="M77.0637 49.2217H72.2473V54.0381H77.0637V49.2217Z" fill="white"/>
<path d="M81.88 49.2217H77.0636V54.0381H81.88V49.2217Z" fill="black"/>
<path d="M86.6964 49.2217H81.8801V54.0381H86.6964V49.2217Z" fill="black"/>
<path d="M91.5127 49.2217H86.6964V54.0381H91.5127V49.2217Z" fill="white"/>
<path d="M96.3291 49.2217H91.5128V54.0381H96.3291V49.2217Z" fill="white"/>
<path d="M101.146 49.2217H96.3292V54.0381H101.146V49.2217Z" fill="white"/>
<path d="M105.962 49.2217H101.146V54.0381H105.962V49.2217Z" fill="black"/>
<path d="M110.778 49.2217H105.962V54.0381H110.778V49.2217Z" fill="white"/>
<path d="M115.595 49.2217H110.778V54.0381H115.595V49.2217Z" fill="white"/>
<path d="M120.411 49.2217H115.595V54.0381H120.411V49.2217Z" fill="black"/>
<path d="M125.227 49.2217H120.411V54.0381H125.227V49.2217Z" fill="white"/>
<path d="M130.044 49.2217H125.227V54.0381H130.044V49.2217Z" fill="white"/>
<path d="M134.86 49.2217H130.044V54.0381H134.86V49.2217Z" fill="white"/>
<path d="M139.676 49.2217H134.86V54.0381H139.676V49.2217Z" fill="white"/>
<path d="M144.493 49.2217H139.677V54.0381H144.493V49.2217Z" fill="white"/>
<path d="M149.309 49.2217H144.493V54.0381H149.309V49.2217Z" fill="black"/>
<path d="M14.4508 54.0383H9.6344V58.8547H14.4508V54.0383Z" fill="white"/>
<path d="M19.2671 54.0383H14.4507V58.8547H19.2671V54.0383Z" fill="white"/>
<path d="M24.0835 54.0383H19.2672V58.8547H24.0835V54.0383Z" fill="black"/>
<path d="M28.8999 54.0383H24.0835V58.8547H28.8999V54.0383Z" fill="black"/>
<path d="M33.7163 54.0383H28.8999V58.8547H33.7163V54.0383Z" fill="white"/>
<path d="M38.5326 54.0383H33.7162V58.8547H38.5326V54.0383Z" fill="black"/>
<path d="M43.349 54.0383H38.5326V58.8547H43.349V54.0383Z" fill="white"/>
<path d="M48.1654 54.0383H43.349V58.8547H48.1654V54.0383Z" fill="black"/>
<path d="M52.9818 54.0383H48.1654V58.8547H52.9818V54.0383Z" fill="black"/>
<path d="M57.7981 54.0383H52.9818V58.8547H57.7981V54.0383Z" fill="black"/>
<path d="M62.6145 54.0383H57.7982V58.8547H62.6145V54.0383Z" fill="white"/>
<path d="M67.4309 54.0383H62.6145V58.8547H67.4309V54.0383Z" fill="white"/>
<path d="M72.2473 54.0383H67.4309V58.8547H72.2473V54.0383Z" fill="black"/>
<path d="M77.0637 54.0383H72.2473V58.8547H77.0637V54.0383Z" fill="white"/>
<path d="M81.88 54.0383H77.0636V58.8547H81.88V54.0383Z" fill="black"/>
<path d="M86.6964 54.0383H81.8801V58.8547H86.6964V54.0383Z" fill="white"/>
<path d="M91.5127 54.0383H86.6964V58.8547H91.5127V54.0383Z" fill="white"/>
<path d="M96.3291 54.0383H91.5128V58.8547H96.3291V54.0383Z" fill="white"/>
<path d="M101.146 54.0383H96.3292V58.8547H101.146V54.0383Z" fill="white"/>
<path d="M105.962 54.0383H101.146V58.8547H105.962V54.0383Z" fill="black"/>
<path d="M110.778 54.0383H105.962V58.8547H110.778V54.0383Z" fill="white"/>
<path d="M115.595 54.0383H110.778V58.8547H115.595V54.0383Z" fill="white"/>
<path d="M120.411 54.0383H115.595V58.8547H120.411V54.0383Z" fill="white"/>
<path d="M125.227 54.0383H120.411V58.8547H125.227V54.0383Z" fill="black"/>
<path d="M130.044 54.0383H125.227V58.8547H130.044V54.0383Z" fill="black"/>
<path d="M134.86 54.0383H130.044V58.8547H134.86V54.0383Z" fill="white"/>
<path d="M139.676 54.0383H134.86V58.8547H139.676V54.0383Z" fill="black"/>
<path d="M144.493 54.0383H139.677V58.8547H144.493V54.0383Z" fill="black"/>
<path d="M149.309 54.0383H144.493V58.8547H149.309V54.0383Z" fill="white"/>
<path d="M14.4508 58.8545H9.6344V63.6709H14.4508V58.8545Z" fill="white"/>
<path d="M19.2671 58.8545H14.4507V63.6709H19.2671V58.8545Z" fill="black"/>
<path d="M24.0835 58.8545H19.2672V63.6709H24.0835V58.8545Z" fill="black"/>
<path d="M28.8999 58.8545H24.0835V63.6709H28.8999V58.8545Z" fill="black"/>
<path d="M33.7163 58.8545H28.8999V63.6709H33.7163V58.8545Z" fill="white"/>
<path d="M38.5326 58.8545H33.7162V63.6709H38.5326V58.8545Z" fill="black"/>
<path d="M43.349 58.8545H38.5326V63.6709H43.349V58.8545Z" fill="black"/>
<path d="M48.1654 58.8545H43.349V63.6709H48.1654V58.8545Z" fill="white"/>
<path d="M52.9818 58.8545H48.1654V63.6709H52.9818V58.8545Z" fill="black"/>
<path d="M57.7981 58.8545H52.9818V63.6709H57.7981V58.8545Z" fill="white"/>
<path d="M62.6145 58.8545H57.7982V63.6709H62.6145V58.8545Z" fill="black"/>
<path d="M67.4309 58.8545H62.6145V63.6709H67.4309V58.8545Z" fill="black"/>
<path d="M72.2473 58.8545H67.4309V63.6709H72.2473V58.8545Z" fill="white"/>
<path d="M77.0637 58.8545H72.2473V63.6709H77.0637V58.8545Z" fill="white"/>
<path d="M81.88 58.8545H77.0636V63.6709H81.88V58.8545Z" fill="black"/>
<path d="M86.6964 58.8545H81.8801V63.6709H86.6964V58.8545Z" fill="black"/>
<path d="M91.5127 58.8545H86.6964V63.6709H91.5127V58.8545Z" fill="white"/>
<path d="M96.3291 58.8545H91.5128V63.6709H96.3291V58.8545Z" fill="white"/>
<path d="M101.146 58.8545H96.3292V63.6709H101.146V58.8545Z" fill="white"/>
<path d="M105.962 58.8545H101.146V63.6709H105.962V58.8545Z" fill="white"/>
<path d="M110.778 58.8545H105.962V63.6709H110.778V58.8545Z" fill="white"/>
<path d="M115.595 58.8545H110.778V63.6709H115.595V58.8545Z" fill="white"/>
<path d="M120.411 58.8545H115.595V63.6709H120.411V58.8545Z" fill="black"/>
<path d="M125.227 58.8545H120.411V63.6709H125.227V58.8545Z" fill="white"/>
<path d="M130.044 58.8545H125.227V63.6709H130.044V58.8545Z" fill="white"/>
<path d="M134.86 58.8545H130.044V63.6709H134.86V58.8545Z" fill="white"/>
<path d="M139.676 58.8545H134.86V63.6709H139.676V58.8545Z" fill="black"/>
<path d="M144.493 58.8545H139.677V63.6709H144.493V58.8545Z" fill="white"/>
<path d="M149.309 58.8545H144.493V63.6709H149.309V58.8545Z" fill="white"/>
<path d="M14.4508 63.6709H9.6344V68.4873H14.4508V63.6709Z" fill="black"/>
<path d="M19.2671 63.6709H14.4507V68.4873H19.2671V63.6709Z" fill="white"/>
<path d="M24.0835 63.6709H19.2672V68.4873H24.0835V63.6709Z" fill="black"/>
<path d="M28.8999 63.6709H24.0835V68.4873H28.8999V63.6709Z" fill="white"/>
<path d="M33.7163 63.6709H28.8999V68.4873H33.7163V63.6709Z" fill="black"/>
<path d="M38.5326 63.6709H33.7162V68.4873H38.5326V63.6709Z" fill="white"/>
<path d="M43.349 63.6709H38.5326V68.4873H43.349V63.6709Z" fill="white"/>
<path d="M48.1654 63.6709H43.349V68.4873H48.1654V63.6709Z" fill="black"/>
<path d="M52.9818 63.6709H48.1654V68.4873H52.9818V63.6709Z" fill="black"/>
<path d="M57.7981 63.6709H52.9818V68.4873H57.7981V63.6709Z" fill="black"/>
<path d="M62.6145 63.6709H57.7982V68.4873H62.6145V63.6709Z" fill="black"/>
<path d="M67.4309 63.6709H62.6145V68.4873H67.4309V63.6709Z" fill="black"/>
<path d="M72.2473 63.6709H67.4309V68.4873H72.2473V63.6709Z" fill="white"/>
<path d="M77.0637 63.6709H72.2473V68.4873H77.0637V63.6709Z" fill="white"/>
<path d="M81.88 63.6709H77.0636V68.4873H81.88V63.6709Z" fill="black"/>
<path d="M86.6964 63.6709H81.8801V68.4873H86.6964V63.6709Z" fill="black"/>
<path d="M91.5127 63.6709H86.6964V68.4873H91.5127V63.6709Z" fill="black"/>
<path d="M96.3291 63.6709H91.5128V68.4873H96.3291V63.6709Z" fill="black"/>
<path d="M101.146 63.6709H96.3292V68.4873H101.146V63.6709Z" fill="white"/>
<path d="M105.962 63.6709H101.146V68.4873H105.962V63.6709Z" fill="white"/>
<path d="M110.778 63.6709H105.962V68.4873H110.778V63.6709Z" fill="black"/>
<path d="M115.595 63.6709H110.778V68.4873H115.595V63.6709Z" fill="white"/>
<path d="M120.411 63.6709H115.595V68.4873H120.411V63.6709Z" fill="white"/>
<path d="M125.227 63.6709H120.411V68.4873H125.227V63.6709Z" fill="white"/>
<path d="M130.044 63.6709H125.227V68.4873H130.044V63.6709Z" fill="white"/>
<path d="M134.86 63.6709H130.044V68.4873H134.86V63.6709Z" fill="black"/>
<path d="M139.676 63.6709H134.86V68.4873H139.676V63.6709Z" fill="white"/>
<path d="M144.493 63.6709H139.677V68.4873H144.493V63.6709Z" fill="white"/>
<path d="M149.309 63.6709H144.493V68.4873H149.309V63.6709Z" fill="black"/>
<path d="M14.4508 68.4873H9.6344V73.3037H14.4508V68.4873Z" fill="black"/>
<path d="M19.2671 68.4873H14.4507V73.3037H19.2671V68.4873Z" fill="white"/>
<path d="M24.0835 68.4873H19.2672V73.3037H24.0835V68.4873Z" fill="black"/>
<path d="M28.8999 68.4873H24.0835V73.3037H28.8999V68.4873Z" fill="white"/>
<path d="M33.7163 68.4873H28.8999V73.3037H33.7163V68.4873Z" fill="white"/>
<path d="M38.5326 68.4873H33.7162V73.3037H38.5326V68.4873Z" fill="black"/>
<path d="M43.349 68.4873H38.5326V73.3037H43.349V68.4873Z" fill="black"/>
<path d="M48.1654 68.4873H43.349V73.3037H48.1654V68.4873Z" fill="black"/>
<path d="M52.9818 68.4873H48.1654V73.3037H52.9818V68.4873Z" fill="black"/>
<path d="M57.7981 68.4873H52.9818V73.3037H57.7981V68.4873Z" fill="black"/>
<path d="M62.6145 68.4873H57.7982V73.3037H62.6145V68.4873Z" fill="white"/>
<path d="M67.4309 68.4873H62.6145V73.3037H67.4309V68.4873Z" fill="black"/>
<path d="M72.2473 68.4873H67.4309V73.3037H72.2473V68.4873Z" fill="black"/>
<path d="M77.0637 68.4873H72.2473V73.3037H77.0637V68.4873Z" fill="white"/>
<path d="M81.88 68.4873H77.0636V73.3037H81.88V68.4873Z" fill="white"/>
<path d="M86.6964 68.4873H81.8801V73.3037H86.6964V68.4873Z" fill="black"/>
<path d="M91.5127 68.4873H86.6964V73.3037H91.5127V68.4873Z" fill="white"/>
<path d="M96.3291 68.4873H91.5128V73.3037H96.3291V68.4873Z" fill="white"/>
<path d="M101.146 68.4873H96.3292V73.3037H101.146V68.4873Z" fill="white"/>
<path d="M105.962 68.4873H101.146V73.3037H105.962V68.4873Z" fill="white"/>
<path d="M110.778 68.4873H105.962V73.3037H110.778V68.4873Z" fill="black"/>
<path d="M115.595 68.4873H110.778V73.3037H115.595V68.4873Z" fill="white"/>
<path d="M120.411 68.4873H115.595V73.3037H120.411V68.4873Z" fill="black"/>
<path d="M125.227 68.4873H120.411V73.3037H125.227V68.4873Z" fill="black"/>
<path d="M130.044 68.4873H125.227V73.3037H130.044V68.4873Z" fill="white"/>
<path d="M134.86 68.4873H130.044V73.3037H134.86V68.4873Z" fill="white"/>
<path d="M139.676 68.4873H134.86V73.3037H139.676V68.4873Z" fill="white"/>
<path d="M144.493 68.4873H139.677V73.3037H144.493V68.4873Z" fill="white"/>
<path d="M149.309 68.4873H144.493V73.3037H149.309V68.4873Z" fill="black"/>
<path d="M14.4508 73.3035H9.6344V78.1198H14.4508V73.3035Z" fill="white"/>
<path d="M19.2671 73.3035H14.4507V78.1198H19.2671V73.3035Z" fill="black"/>
<path d="M24.0835 73.3035H19.2672V78.1198H24.0835V73.3035Z" fill="white"/>
<path d="M28.8999 73.3035H24.0835V78.1198H28.8999V73.3035Z" fill="white"/>
<path d="M33.7163 73.3035H28.8999V78.1198H33.7163V73.3035Z" fill="white"/>
<path d="M38.5326 73.3035H33.7162V78.1198H38.5326V73.3035Z" fill="white"/>
<path d="M43.349 73.3035H38.5326V78.1198H43.349V73.3035Z" fill="white"/>
<path d="M48.1654 73.3035H43.349V78.1198H48.1654V73.3035Z" fill="white"/>
<path d="M52.9818 73.3035H48.1654V78.1198H52.9818V73.3035Z" fill="white"/>
<path d="M57.7981 73.3035H52.9818V78.1198H57.7981V73.3035Z" fill="black"/>
<path d="M62.6145 73.3035H57.7982V78.1198H62.6145V73.3035Z" fill="white"/>
<path d="M67.4309 73.3035H62.6145V78.1198H67.4309V73.3035Z" fill="black"/>
<path d="M72.2473 73.3035H67.4309V78.1198H72.2473V73.3035Z" fill="white"/>
<path d="M77.0637 73.3035H72.2473V78.1198H77.0637V73.3035Z" fill="black"/>
<path d="M81.88 73.3035H77.0636V78.1198H81.88V73.3035Z" fill="black"/>
<path d="M86.6964 73.3035H81.8801V78.1198H86.6964V73.3035Z" fill="black"/>
<path d="M91.5127 73.3035H86.6964V78.1198H91.5127V73.3035Z" fill="black"/>
<path d="M96.3291 73.3035H91.5128V78.1198H96.3291V73.3035Z" fill="black"/>
<path d="M101.146 73.3035H96.3292V78.1198H101.146V73.3035Z" fill="white"/>
<path d="M105.962 73.3035H101.146V78.1198H105.962V73.3035Z" fill="white"/>
<path d="M110.778 73.3035H105.962V78.1198H110.778V73.3035Z" fill="white"/>
<path d="M115.595 73.3035H110.778V78.1198H115.595V73.3035Z" fill="white"/>
<path d="M120.411 73.3035H115.595V78.1198H120.411V73.3035Z" fill="black"/>
<path d="M125.227 73.3035H120.411V78.1198H125.227V73.3035Z" fill="black"/>
<path d="M130.044 73.3035H125.227V78.1198H130.044V73.3035Z" fill="black"/>
<path d="M134.86 73.3035H130.044V78.1198H134.86V73.3035Z" fill="black"/>
<path d="M139.676 73.3035H134.86V78.1198H139.676V73.3035Z" fill="black"/>
<path d="M144.493 73.3035H139.677V78.1198H144.493V73.3035Z" fill="black"/>
<path d="M149.309 73.3035H144.493V78.1198H149.309V73.3035Z" fill="black"/>
<path d="M14.4508 78.1199H9.6344V82.9362H14.4508V78.1199Z" fill="white"/>
<path d="M19.2671 78.1199H14.4507V82.9362H19.2671V78.1199Z" fill="white"/>
<path d="M24.0835 78.1199H19.2672V82.9362H24.0835V78.1199Z" fill="black"/>
<path d="M28.8999 78.1199H24.0835V82.9362H28.8999V78.1199Z" fill="white"/>
<path d="M33.7163 78.1199H28.8999V82.9362H33.7163V78.1199Z" fill="black"/>
<path d="M38.5326 78.1199H33.7162V82.9362H38.5326V78.1199Z" fill="white"/>
<path d="M43.349 78.1199H38.5326V82.9362H43.349V78.1199Z" fill="black"/>
<path d="M48.1654 78.1199H43.349V82.9362H48.1654V78.1199Z" fill="black"/>
<path d="M52.9818 78.1199H48.1654V82.9362H52.9818V78.1199Z" fill="white"/>
<path d="M57.7981 78.1199H52.9818V82.9362H57.7981V78.1199Z" fill="black"/>
<path d="M62.6145 78.1199H57.7982V82.9362H62.6145V78.1199Z" fill="white"/>
<path d="M67.4309 78.1199H62.6145V82.9362H67.4309V78.1199Z" fill="white"/>
<path d="M72.2473 78.1199H67.4309V82.9362H72.2473V78.1199Z" fill="white"/>
<path d="M77.0637 78.1199H72.2473V82.9362H77.0637V78.1199Z" fill="white"/>
<path d="M81.88 78.1199H77.0636V82.9362H81.88V78.1199Z" fill="black"/>
<path d="M86.6964 78.1199H81.8801V82.9362H86.6964V78.1199Z" fill="black"/>
<path d="M91.5127 78.1199H86.6964V82.9362H91.5127V78.1199Z" fill="white"/>
<path d="M96.3291 78.1199H91.5128V82.9362H96.3291V78.1199Z" fill="black"/>
<path d="M101.146 78.1199H96.3292V82.9362H101.146V78.1199Z" fill="black"/>
<path d="M105.962 78.1199H101.146V82.9362H105.962V78.1199Z" fill="black"/>
<path d="M110.778 78.1199H105.962V82.9362H110.778V78.1199Z" fill="white"/>
<path d="M115.595 78.1199H110.778V82.9362H115.595V78.1199Z" fill="white"/>
<path d="M120.411 78.1199H115.595V82.9362H120.411V78.1199Z" fill="black"/>
<path d="M125.227 78.1199H120.411V82.9362H125.227V78.1199Z" fill="white"/>
<path d="M130.044 78.1199H125.227V82.9362H130.044V78.1199Z" fill="white"/>
<path d="M134.86 78.1199H130.044V82.9362H134.86V78.1199Z" fill="white"/>
<path d="M139.676 78.1199H134.86V82.9362H139.676V78.1199Z" fill="black"/>
<path d="M144.493 78.1199H139.677V82.9362H144.493V78.1199Z" fill="white"/>
<path d="M149.309 78.1199H144.493V82.9362H149.309V78.1199Z" fill="black"/>
<path d="M14.4508 82.9363H9.6344V87.7527H14.4508V82.9363Z" fill="white"/>
<path d="M19.2671 82.9363H14.4507V87.7527H19.2671V82.9363Z" fill="black"/>
<path d="M24.0835 82.9363H19.2672V87.7527H24.0835V82.9363Z" fill="white"/>
<path d="M28.8999 82.9363H24.0835V87.7527H28.8999V82.9363Z" fill="white"/>
<path d="M33.7163 82.9363H28.8999V87.7527H33.7163V82.9363Z" fill="white"/>
<path d="M38.5326 82.9363H33.7162V87.7527H38.5326V82.9363Z" fill="black"/>
<path d="M43.349 82.9363H38.5326V87.7527H43.349V82.9363Z" fill="white"/>
<path d="M48.1654 82.9363H43.349V87.7527H48.1654V82.9363Z" fill="white"/>
<path d="M52.9818 82.9363H48.1654V87.7527H52.9818V82.9363Z" fill="black"/>
<path d="M57.7981 82.9363H52.9818V87.7527H57.7981V82.9363Z" fill="black"/>
<path d="M62.6145 82.9363H57.7982V87.7527H62.6145V82.9363Z" fill="black"/>
<path d="M67.4309 82.9363H62.6145V87.7527H67.4309V82.9363Z" fill="white"/>
<path d="M72.2473 82.9363H67.4309V87.7527H72.2473V82.9363Z" fill="white"/>
<path d="M77.0637 82.9363H72.2473V87.7527H77.0637V82.9363Z" fill="white"/>
<path d="M81.88 82.9363H77.0636V87.7527H81.88V82.9363Z" fill="black"/>
<path d="M86.6964 82.9363H81.8801V87.7527H86.6964V82.9363Z" fill="white"/>
<path d="M91.5127 82.9363H86.6964V87.7527H91.5127V82.9363Z" fill="white"/>
<path d="M96.3291 82.9363H91.5128V87.7527H96.3291V82.9363Z" fill="white"/>
<path d="M101.146 82.9363H96.3292V87.7527H101.146V82.9363Z" fill="black"/>
<path d="M105.962 82.9363H101.146V87.7527H105.962V82.9363Z" fill="black"/>
<path d="M110.778 82.9363H105.962V87.7527H110.778V82.9363Z" fill="white"/>
<path d="M115.595 82.9363H110.778V87.7527H115.595V82.9363Z" fill="black"/>
<path d="M120.411 82.9363H115.595V87.7527H120.411V82.9363Z" fill="black"/>
<path d="M125.227 82.9363H120.411V87.7527H125.227V82.9363Z" fill="black"/>
<path d="M130.044 82.9363H125.227V87.7527H130.044V82.9363Z" fill="white"/>
<path d="M134.86 82.9363H130.044V87.7527H134.86V82.9363Z" fill="white"/>
<path d="M139.676 82.9363H134.86V87.7527H139.676V82.9363Z" fill="black"/>
<path d="M144.493 82.9363H139.677V87.7527H144.493V82.9363Z" fill="white"/>
<path d="M149.309 82.9363H144.493V87.7527H149.309V82.9363Z" fill="black"/>
<path d="M14.4508 87.7529H9.6344V92.5693H14.4508V87.7529Z" fill="white"/>
<path d="M19.2671 87.7529H14.4507V92.5693H19.2671V87.7529Z" fill="white"/>
<path d="M24.0835 87.7529H19.2672V92.5693H24.0835V87.7529Z" fill="white"/>
<path d="M28.8999 87.7529H24.0835V92.5693H28.8999V87.7529Z" fill="white"/>
<path d="M33.7163 87.7529H28.8999V92.5693H33.7163V87.7529Z" fill="white"/>
<path d="M38.5326 87.7529H33.7162V92.5693H38.5326V87.7529Z" fill="black"/>
<path d="M43.349 87.7529H38.5326V92.5693H43.349V87.7529Z" fill="black"/>
<path d="M48.1654 87.7529H43.349V92.5693H48.1654V87.7529Z" fill="white"/>
<path d="M52.9818 87.7529H48.1654V92.5693H52.9818V87.7529Z" fill="black"/>
<path d="M57.7981 87.7529H52.9818V92.5693H57.7981V87.7529Z" fill="black"/>
<path d="M62.6145 87.7529H57.7982V92.5693H62.6145V87.7529Z" fill="black"/>
<path d="M67.4309 87.7529H62.6145V92.5693H67.4309V87.7529Z" fill="black"/>
<path d="M72.2473 87.7529H67.4309V92.5693H72.2473V87.7529Z" fill="white"/>
<path d="M77.0637 87.7529H72.2473V92.5693H77.0637V87.7529Z" fill="white"/>
<path d="M81.88 87.7529H77.0636V92.5693H81.88V87.7529Z" fill="white"/>
<path d="M86.6964 87.7529H81.8801V92.5693H86.6964V87.7529Z" fill="black"/>
<path d="M91.5127 87.7529H86.6964V92.5693H91.5127V87.7529Z" fill="white"/>
<path d="M96.3291 87.7529H91.5128V92.5693H96.3291V87.7529Z" fill="white"/>
<path d="M101.146 87.7529H96.3292V92.5693H101.146V87.7529Z" fill="black"/>
<path d="M105.962 87.7529H101.146V92.5693H105.962V87.7529Z" fill="black"/>
<path d="M110.778 87.7529H105.962V92.5693H110.778V87.7529Z" fill="black"/>
<path d="M115.595 87.7529H110.778V92.5693H115.595V87.7529Z" fill="white"/>
<path d="M120.411 87.7529H115.595V92.5693H120.411V87.7529Z" fill="white"/>
<path d="M125.227 87.7529H120.411V92.5693H125.227V87.7529Z" fill="black"/>
<path d="M130.044 87.7529H125.227V92.5693H130.044V87.7529Z" fill="white"/>
<path d="M134.86 87.7529H130.044V92.5693H134.86V87.7529Z" fill="black"/>
<path d="M139.676 87.7529H134.86V92.5693H139.676V87.7529Z" fill="white"/>
<path d="M144.493 87.7529H139.677V92.5693H144.493V87.7529Z" fill="white"/>
<path d="M149.309 87.7529H144.493V92.5693H149.309V87.7529Z" fill="white"/>
<path d="M14.4508 92.5691H9.6344V97.3855H14.4508V92.5691Z" fill="black"/>
<path d="M19.2671 92.5691H14.4507V97.3855H19.2671V92.5691Z" fill="white"/>
<path d="M24.0835 92.5691H19.2672V97.3855H24.0835V92.5691Z" fill="black"/>
<path d="M28.8999 92.5691H24.0835V97.3855H28.8999V92.5691Z" fill="white"/>
<path d="M33.7163 92.5691H28.8999V97.3855H33.7163V92.5691Z" fill="black"/>
<path d="M38.5326 92.5691H33.7162V97.3855H38.5326V92.5691Z" fill="white"/>
<path d="M43.349 92.5691H38.5326V97.3855H43.349V92.5691Z" fill="white"/>
<path d="M48.1654 92.5691H43.349V97.3855H48.1654V92.5691Z" fill="black"/>
<path d="M52.9818 92.5691H48.1654V97.3855H52.9818V92.5691Z" fill="white"/>
<path d="M57.7981 92.5691H52.9818V97.3855H57.7981V92.5691Z" fill="black"/>
<path d="M62.6145 92.5691H57.7982V97.3855H62.6145V92.5691Z" fill="black"/>
<path d="M67.4309 92.5691H62.6145V97.3855H67.4309V92.5691Z" fill="white"/>
<path d="M72.2473 92.5691H67.4309V97.3855H72.2473V92.5691Z" fill="white"/>
<path d="M77.0637 92.5691H72.2473V97.3855H77.0637V92.5691Z" fill="black"/>
<path d="M81.88 92.5691H77.0636V97.3855H81.88V92.5691Z" fill="black"/>
<path d="M86.6964 92.5691H81.8801V97.3855H86.6964V92.5691Z" fill="black"/>
<path d="M91.5127 92.5691H86.6964V97.3855H91.5127V92.5691Z" fill="white"/>
<path d="M96.3291 92.5691H91.5128V97.3855H96.3291V92.5691Z" fill="white"/>
<path d="M101.146 92.5691H96.3292V97.3855H101.146V92.5691Z" fill="black"/>
<path d="M105.962 92.5691H101.146V97.3855H105.962V92.5691Z" fill="black"/>
<path d="M110.778 92.5691H105.962V97.3855H110.778V92.5691Z" fill="white"/>
<path d="M115.595 92.5691H110.778V97.3855H115.595V92.5691Z" fill="white"/>
<path d="M120.411 92.5691H115.595V97.3855H120.411V92.5691Z" fill="white"/>
<path d="M125.227 92.5691H120.411V97.3855H125.227V92.5691Z" fill="black"/>
<path d="M130.044 92.5691H125.227V97.3855H130.044V92.5691Z" fill="black"/>
<path d="M134.86 92.5691H130.044V97.3855H134.86V92.5691Z" fill="white"/>
<path d="M139.676 92.5691H134.86V97.3855H139.676V92.5691Z" fill="black"/>
<path d="M144.493 92.5691H139.677V97.3855H144.493V92.5691Z" fill="black"/>
<path d="M149.309 92.5691H144.493V97.3855H149.309V92.5691Z" fill="white"/>
<path d="M14.4508 97.3855H9.6344V102.202H14.4508V97.3855Z" fill="black"/>
<path d="M19.2671 97.3855H14.4507V102.202H19.2671V97.3855Z" fill="black"/>
<path d="M24.0835 97.3855H19.2672V102.202H24.0835V97.3855Z" fill="black"/>
<path d="M28.8999 97.3855H24.0835V102.202H28.8999V97.3855Z" fill="black"/>
<path d="M33.7163 97.3855H28.8999V102.202H33.7163V97.3855Z" fill="black"/>
<path d="M38.5326 97.3855H33.7162V102.202H38.5326V97.3855Z" fill="black"/>
<path d="M43.349 97.3855H38.5326V102.202H43.349V97.3855Z" fill="black"/>
<path d="M48.1654 97.3855H43.349V102.202H48.1654V97.3855Z" fill="white"/>
<path d="M52.9818 97.3855H48.1654V102.202H52.9818V97.3855Z" fill="white"/>
<path d="M57.7981 97.3855H52.9818V102.202H57.7981V97.3855Z" fill="black"/>
<path d="M62.6145 97.3855H57.7982V102.202H62.6145V97.3855Z" fill="white"/>
<path d="M67.4309 97.3855H62.6145V102.202H67.4309V97.3855Z" fill="black"/>
<path d="M72.2473 97.3855H67.4309V102.202H72.2473V97.3855Z" fill="black"/>
<path d="M77.0637 97.3855H72.2473V102.202H77.0637V97.3855Z" fill="white"/>
<path d="M81.88 97.3855H77.0636V102.202H81.88V97.3855Z" fill="white"/>
<path d="M86.6964 97.3855H81.8801V102.202H86.6964V97.3855Z" fill="black"/>
<path d="M91.5127 97.3855H86.6964V102.202H91.5127V97.3855Z" fill="black"/>
<path d="M96.3291 97.3855H91.5128V102.202H96.3291V97.3855Z" fill="white"/>
<path d="M101.146 97.3855H96.3292V102.202H101.146V97.3855Z" fill="white"/>
<path d="M105.962 97.3855H101.146V102.202H105.962V97.3855Z" fill="black"/>
<path d="M110.778 97.3855H105.962V102.202H110.778V97.3855Z" fill="white"/>
<path d="M115.595 97.3855H110.778V102.202H115.595V97.3855Z" fill="white"/>
<path d="M120.411 97.3855H115.595V102.202H120.411V97.3855Z" fill="white"/>
<path d="M125.227 97.3855H120.411V102.202H125.227V97.3855Z" fill="white"/>
<path d="M130.044 97.3855H125.227V102.202H130.044V97.3855Z" fill="white"/>
<path d="M134.86 97.3855H130.044V102.202H134.86V97.3855Z" fill="black"/>
<path d="M139.676 97.3855H134.86V102.202H139.676V97.3855Z" fill="white"/>
<path d="M144.493 97.3855H139.677V102.202H144.493V97.3855Z" fill="white"/>
<path d="M149.309 97.3855H144.493V102.202H149.309V97.3855Z" fill="black"/>
<path d="M14.4508 102.202H9.6344V107.018H14.4508V102.202Z" fill="black"/>
<path d="M19.2671 102.202H14.4507V107.018H19.2671V102.202Z" fill="black"/>
<path d="M24.0835 102.202H19.2672V107.018H24.0835V102.202Z" fill="black"/>
<path d="M28.8999 102.202H24.0835V107.018H28.8999V102.202Z" fill="black"/>
<path d="M33.7163 102.202H28.8999V107.018H33.7163V102.202Z" fill="white"/>
<path d="M38.5326 102.202H33.7162V107.018H38.5326V102.202Z" fill="white"/>
<path d="M43.349 102.202H38.5326V107.018H43.349V102.202Z" fill="white"/>
<path d="M48.1654 102.202H43.349V107.018H48.1654V102.202Z" fill="black"/>
<path d="M52.9818 102.202H48.1654V107.018H52.9818V102.202Z" fill="black"/>
<path d="M57.7981 102.202H52.9818V107.018H57.7981V102.202Z" fill="white"/>
<path d="M62.6145 102.202H57.7982V107.018H62.6145V102.202Z" fill="black"/>
<path d="M67.4309 102.202H62.6145V107.018H67.4309V102.202Z" fill="black"/>
<path d="M72.2473 102.202H67.4309V107.018H72.2473V102.202Z" fill="black"/>
<path d="M77.0637 102.202H72.2473V107.018H77.0637V102.202Z" fill="black"/>
<path d="M81.88 102.202H77.0636V107.018H81.88V102.202Z" fill="white"/>
<path d="M86.6964 102.202H81.8801V107.018H86.6964V102.202Z" fill="white"/>
<path d="M91.5127 102.202H86.6964V107.018H91.5127V102.202Z" fill="black"/>
<path d="M96.3291 102.202H91.5128V107.018H96.3291V102.202Z" fill="white"/>
<path d="M101.146 102.202H96.3292V107.018H101.146V102.202Z" fill="white"/>
<path d="M105.962 102.202H101.146V107.018H105.962V102.202Z" fill="white"/>
<path d="M110.778 102.202H105.962V107.018H110.778V102.202Z" fill="black"/>
<path d="M115.595 102.202H110.778V107.018H115.595V102.202Z" fill="white"/>
<path d="M120.411 102.202H115.595V107.018H120.411V102.202Z" fill="white"/>
<path d="M125.227 102.202H120.411V107.018H125.227V102.202Z" fill="black"/>
<path d="M130.044 102.202H125.227V107.018H130.044V102.202Z" fill="white"/>
<path d="M134.86 102.202H130.044V107.018H134.86V102.202Z" fill="black"/>
<path d="M139.676 102.202H134.86V107.018H139.676V102.202Z" fill="black"/>
<path d="M144.493 102.202H139.677V107.018H144.493V102.202Z" fill="white"/>
<path d="M149.309 102.202H144.493V107.018H149.309V102.202Z" fill="white"/>
<path d="M14.4508 107.018H9.6344V111.834H14.4508V107.018Z" fill="black"/>
<path d="M19.2671 107.018H14.4507V111.834H19.2671V107.018Z" fill="black"/>
<path d="M24.0835 107.018H19.2672V111.834H24.0835V107.018Z" fill="white"/>
<path d="M28.8999 107.018H24.0835V111.834H28.8999V107.018Z" fill="black"/>
<path d="M33.7163 107.018H28.8999V111.834H33.7163V107.018Z" fill="black"/>
<path d="M38.5326 107.018H33.7162V111.834H38.5326V107.018Z" fill="black"/>
<path d="M43.349 107.018H38.5326V111.834H43.349V107.018Z" fill="black"/>
<path d="M48.1654 107.018H43.349V111.834H48.1654V107.018Z" fill="white"/>
<path d="M52.9818 107.018H48.1654V111.834H52.9818V107.018Z" fill="black"/>
<path d="M57.7981 107.018H52.9818V111.834H57.7981V107.018Z" fill="black"/>
<path d="M62.6145 107.018H57.7982V111.834H62.6145V107.018Z" fill="black"/>
<path d="M67.4309 107.018H62.6145V111.834H67.4309V107.018Z" fill="white"/>
<path d="M72.2473 107.018H67.4309V111.834H72.2473V107.018Z" fill="white"/>
<path d="M77.0637 107.018H72.2473V111.834H77.0637V107.018Z" fill="white"/>
<path d="M81.88 107.018H77.0636V111.834H81.88V107.018Z" fill="black"/>
<path d="M86.6964 107.018H81.8801V111.834H86.6964V107.018Z" fill="black"/>
<path d="M91.5127 107.018H86.6964V111.834H91.5127V107.018Z" fill="white"/>
<path d="M96.3291 107.018H91.5128V111.834H96.3291V107.018Z" fill="white"/>
<path d="M101.146 107.018H96.3292V111.834H101.146V107.018Z" fill="white"/>
<path d="M105.962 107.018H101.146V111.834H105.962V107.018Z" fill="white"/>
<path d="M110.778 107.018H105.962V111.834H110.778V107.018Z" fill="black"/>
<path d="M115.595 107.018H110.778V111.834H115.595V107.018Z" fill="black"/>
<path d="M120.411 107.018H115.595V111.834H120.411V107.018Z" fill="black"/>
<path d="M125.227 107.018H120.411V111.834H125.227V107.018Z" fill="black"/>
<path d="M130.044 107.018H125.227V111.834H130.044V107.018Z" fill="black"/>
<path d="M134.86 107.018H130.044V111.834H134.86V107.018Z" fill="black"/>
<path d="M139.676 107.018H134.86V111.834H139.676V107.018Z" fill="black"/>
<path d="M144.493 107.018H139.677V111.834H144.493V107.018Z" fill="black"/>
<path d="M149.309 107.018H144.493V111.834H149.309V107.018Z" fill="white"/>
<path d="M14.4508 111.834H9.6344V116.651H14.4508V111.834Z" fill="white"/>
<path d="M19.2671 111.834H14.4507V116.651H19.2671V111.834Z" fill="white"/>
<path d="M24.0835 111.834H19.2672V116.651H24.0835V111.834Z" fill="white"/>
<path d="M28.8999 111.834H24.0835V116.651H28.8999V111.834Z" fill="white"/>
<path d="M33.7163 111.834H28.8999V116.651H33.7163V111.834Z" fill="white"/>
<path d="M38.5326 111.834H33.7162V116.651H38.5326V111.834Z" fill="white"/>
<path d="M43.349 111.834H38.5326V116.651H43.349V111.834Z" fill="white"/>
<path d="M48.1654 111.834H43.349V116.651H48.1654V111.834Z" fill="white"/>
<path d="M52.9818 111.834H48.1654V116.651H52.9818V111.834Z" fill="black"/>
<path d="M57.7981 111.834H52.9818V116.651H57.7981V111.834Z" fill="black"/>
<path d="M62.6145 111.834H57.7982V116.651H62.6145V111.834Z" fill="black"/>
<path d="M67.4309 111.834H62.6145V116.651H67.4309V111.834Z" fill="black"/>
<path d="M72.2473 111.834H67.4309V116.651H72.2473V111.834Z" fill="white"/>
<path d="M77.0637 111.834H72.2473V116.651H77.0637V111.834Z" fill="white"/>
<path d="M81.88 111.834H77.0636V116.651H81.88V111.834Z" fill="white"/>
<path d="M86.6964 111.834H81.8801V116.651H86.6964V111.834Z" fill="black"/>
<path d="M91.5127 111.834H86.6964V116.651H91.5127V111.834Z" fill="white"/>
<path d="M96.3291 111.834H91.5128V116.651H96.3291V111.834Z" fill="black"/>
<path d="M101.146 111.834H96.3292V116.651H101.146V111.834Z" fill="black"/>
<path d="M105.962 111.834H101.146V116.651H105.962V111.834Z" fill="white"/>
<path d="M110.778 111.834H105.962V116.651H110.778V111.834Z" fill="black"/>
<path d="M115.595 111.834H110.778V116.651H115.595V111.834Z" fill="white"/>
<path d="M120.411 111.834H115.595V116.651H120.411V111.834Z" fill="white"/>
<path d="M125.227 111.834H120.411V116.651H125.227V111.834Z" fill="white"/>
<path d="M130.044 111.834H125.227V116.651H130.044V111.834Z" fill="black"/>
<path d="M134.86 111.834H130.044V116.651H134.86V111.834Z" fill="black"/>
<path d="M139.676 111.834H134.86V116.651H139.676V111.834Z" fill="white"/>
<path d="M144.493 111.834H139.677V116.651H144.493V111.834Z" fill="white"/>
<path d="M149.309 111.834H144.493V116.651H149.309V111.834Z" fill="white"/>
<path d="M14.4508 116.651H9.6344V121.467H14.4508V116.651Z" fill="black"/>
<path d="M19.2671 116.651H14.4507V121.467H19.2671V116.651Z" fill="black"/>
<path d="M24.0835 116.651H19.2672V121.467H24.0835V116.651Z" fill="black"/>
<path d="M28.8999 116.651H24.0835V121.467H28.8999V116.651Z" fill="black"/>
<path d="M33.7163 116.651H28.8999V121.467H33.7163V116.651Z" fill="black"/>
<path d="M38.5326 116.651H33.7162V121.467H38.5326V116.651Z" fill="black"/>
<path d="M43.349 116.651H38.5326V121.467H43.349V116.651Z" fill="black"/>
<path d="M48.1654 116.651H43.349V121.467H48.1654V116.651Z" fill="white"/>
<path d="M52.9818 116.651H48.1654V121.467H52.9818V116.651Z" fill="white"/>
<path d="M57.7981 116.651H52.9818V121.467H57.7981V116.651Z" fill="white"/>
<path d="M62.6145 116.651H57.7982V121.467H62.6145V116.651Z" fill="white"/>
<path d="M67.4309 116.651H62.6145V121.467H67.4309V116.651Z" fill="black"/>
<path d="M72.2473 116.651H67.4309V121.467H72.2473V116.651Z" fill="black"/>
<path d="M77.0637 116.651H72.2473V121.467H77.0637V116.651Z" fill="white"/>
<path d="M81.88 116.651H77.0636V121.467H81.88V116.651Z" fill="black"/>
<path d="M86.6964 116.651H81.8801V121.467H86.6964V116.651Z" fill="black"/>
<path d="M91.5127 116.651H86.6964V121.467H91.5127V116.651Z" fill="white"/>
<path d="M96.3291 116.651H91.5128V121.467H96.3291V116.651Z" fill="black"/>
<path d="M101.146 116.651H96.3292V121.467H101.146V116.651Z" fill="white"/>
<path d="M105.962 116.651H101.146V121.467H105.962V116.651Z" fill="black"/>
<path d="M110.778 116.651H105.962V121.467H110.778V116.651Z" fill="black"/>
<path d="M115.595 116.651H110.778V121.467H115.595V116.651Z" fill="white"/>
<path d="M120.411 116.651H115.595V121.467H120.411V116.651Z" fill="black"/>
<path d="M125.227 116.651H120.411V121.467H125.227V116.651Z" fill="white"/>
<path d="M130.044 116.651H125.227V121.467H130.044V116.651Z" fill="black"/>
<path d="M134.86 116.651H130.044V121.467H134.86V116.651Z" fill="black"/>
<path d="M139.676 116.651H134.86V121.467H139.676V116.651Z" fill="white"/>
<path d="M144.493 116.651H139.677V121.467H144.493V116.651Z" fill="white"/>
<path d="M149.309 116.651H144.493V121.467H149.309V116.651Z" fill="white"/>
<path d="M14.4508 121.468H9.6344V126.284H14.4508V121.468Z" fill="black"/>
<path d="M19.2671 121.468H14.4507V126.284H19.2671V121.468Z" fill="white"/>
<path d="M24.0835 121.468H19.2672V126.284H24.0835V121.468Z" fill="white"/>
<path d="M28.8999 121.468H24.0835V126.284H28.8999V121.468Z" fill="white"/>
<path d="M33.7163 121.468H28.8999V126.284H33.7163V121.468Z" fill="white"/>
<path d="M38.5326 121.468H33.7162V126.284H38.5326V121.468Z" fill="white"/>
<path d="M43.349 121.468H38.5326V126.284H43.349V121.468Z" fill="black"/>
<path d="M48.1654 121.468H43.349V126.284H48.1654V121.468Z" fill="white"/>
<path d="M52.9818 121.468H48.1654V126.284H52.9818V121.468Z" fill="white"/>
<path d="M57.7981 121.468H52.9818V126.284H57.7981V121.468Z" fill="white"/>
<path d="M62.6145 121.468H57.7982V126.284H62.6145V121.468Z" fill="white"/>
<path d="M67.4309 121.468H62.6145V126.284H67.4309V121.468Z" fill="black"/>
<path d="M72.2473 121.468H67.4309V126.284H72.2473V121.468Z" fill="white"/>
<path d="M77.0637 121.468H72.2473V126.284H77.0637V121.468Z" fill="white"/>
<path d="M81.88 121.468H77.0636V126.284H81.88V121.468Z" fill="black"/>
<path d="M86.6964 121.468H81.8801V126.284H86.6964V121.468Z" fill="black"/>
<path d="M91.5127 121.468H86.6964V126.284H91.5127V121.468Z" fill="black"/>
<path d="M96.3291 121.468H91.5128V126.284H96.3291V121.468Z" fill="black"/>
<path d="M101.146 121.468H96.3292V126.284H101.146V121.468Z" fill="white"/>
<path d="M105.962 121.468H101.146V126.284H105.962V121.468Z" fill="black"/>
<path d="M110.778 121.468H105.962V126.284H110.778V121.468Z" fill="black"/>
<path d="M115.595 121.468H110.778V126.284H115.595V121.468Z" fill="white"/>
<path d="M120.411 121.468H115.595V126.284H120.411V121.468Z" fill="white"/>
<path d="M125.227 121.468H120.411V126.284H125.227V121.468Z" fill="white"/>
<path d="M130.044 121.468H125.227V126.284H130.044V121.468Z" fill="black"/>
<path d="M134.86 121.468H130.044V126.284H134.86V121.468Z" fill="white"/>
<path d="M139.676 121.468H134.86V126.284H139.676V121.468Z" fill="white"/>
<path d="M144.493 121.468H139.677V126.284H144.493V121.468Z" fill="white"/>
<path d="M149.309 121.468H144.493V126.284H149.309V121.468Z" fill="black"/>
<path d="M14.4508 126.284H9.6344V131.1H14.4508V126.284Z" fill="black"/>
<path d="M19.2671 126.284H14.4507V131.1H19.2671V126.284Z" fill="white"/>
<path d="M24.0835 126.284H19.2672V131.1H24.0835V126.284Z" fill="black"/>
<path d="M28.8999 126.284H24.0835V131.1H28.8999V126.284Z" fill="black"/>
<path d="M33.7163 126.284H28.8999V131.1H33.7163V126.284Z" fill="black"/>
<path d="M38.5326 126.284H33.7162V131.1H38.5326V126.284Z" fill="white"/>
<path d="M43.349 126.284H38.5326V131.1H43.349V126.284Z" fill="black"/>
<path d="M48.1654 126.284H43.349V131.1H48.1654V126.284Z" fill="white"/>
<path d="M52.9818 126.284H48.1654V131.1H52.9818V126.284Z" fill="black"/>
<path d="M57.7981 126.284H52.9818V131.1H57.7981V126.284Z" fill="black"/>
<path d="M62.6145 126.284H57.7982V131.1H62.6145V126.284Z" fill="white"/>
<path d="M67.4309 126.284H62.6145V131.1H67.4309V126.284Z" fill="black"/>
<path d="M72.2473 126.284H67.4309V131.1H72.2473V126.284Z" fill="white"/>
<path d="M77.0637 126.284H72.2473V131.1H77.0637V126.284Z" fill="white"/>
<path d="M81.88 126.284H77.0636V131.1H81.88V126.284Z" fill="white"/>
<path d="M86.6964 126.284H81.8801V131.1H86.6964V126.284Z" fill="white"/>
<path d="M91.5127 126.284H86.6964V131.1H91.5127V126.284Z" fill="white"/>
<path d="M96.3291 126.284H91.5128V131.1H96.3291V126.284Z" fill="white"/>
<path d="M101.146 126.284H96.3292V131.1H101.146V126.284Z" fill="white"/>
<path d="M105.962 126.284H101.146V131.1H105.962V126.284Z" fill="black"/>
<path d="M110.778 126.284H105.962V131.1H110.778V126.284Z" fill="black"/>
<path d="M115.595 126.284H110.778V131.1H115.595V126.284Z" fill="black"/>
<path d="M120.411 126.284H115.595V131.1H120.411V126.284Z" fill="black"/>
<path d="M125.227 126.284H120.411V131.1H125.227V126.284Z" fill="black"/>
<path d="M130.044 126.284H125.227V131.1H130.044V126.284Z" fill="black"/>
<path d="M134.86 126.284H130.044V131.1H134.86V126.284Z" fill="black"/>
<path d="M139.676 126.284H134.86V131.1H139.676V126.284Z" fill="white"/>
<path d="M144.493 126.284H139.677V131.1H144.493V126.284Z" fill="black"/>
<path d="M149.309 126.284H144.493V131.1H149.309V126.284Z" fill="black"/>
<path d="M14.4508 131.1H9.6344V135.916H14.4508V131.1Z" fill="black"/>
<path d="M19.2671 131.1H14.4507V135.916H19.2671V131.1Z" fill="white"/>
<path d="M24.0835 131.1H19.2672V135.916H24.0835V131.1Z" fill="black"/>
<path d="M28.8999 131.1H24.0835V135.916H28.8999V131.1Z" fill="black"/>
<path d="M33.7163 131.1H28.8999V135.916H33.7163V131.1Z" fill="black"/>
<path d="M38.5326 131.1H33.7162V135.916H38.5326V131.1Z" fill="white"/>
<path d="M43.349 131.1H38.5326V135.916H43.349V131.1Z" fill="black"/>
<path d="M48.1654 131.1H43.349V135.916H48.1654V131.1Z" fill="white"/>
<path d="M52.9818 131.1H48.1654V135.916H52.9818V131.1Z" fill="black"/>
<path d="M57.7981 131.1H52.9818V135.916H57.7981V131.1Z" fill="white"/>
<path d="M62.6145 131.1H57.7982V135.916H62.6145V131.1Z" fill="black"/>
<path d="M67.4309 131.1H62.6145V135.916H67.4309V131.1Z" fill="black"/>
<path d="M72.2473 131.1H67.4309V135.916H72.2473V131.1Z" fill="white"/>
<path d="M77.0637 131.1H72.2473V135.916H77.0637V131.1Z" fill="black"/>
<path d="M81.88 131.1H77.0636V135.916H81.88V131.1Z" fill="white"/>
<path d="M86.6964 131.1H81.8801V135.916H86.6964V131.1Z" fill="black"/>
<path d="M91.5127 131.1H86.6964V135.916H91.5127V131.1Z" fill="black"/>
<path d="M96.3291 131.1H91.5128V135.916H96.3291V131.1Z" fill="white"/>
<path d="M101.146 131.1H96.3292V135.916H101.146V131.1Z" fill="black"/>
<path d="M105.962 131.1H101.146V135.916H105.962V131.1Z" fill="black"/>
<path d="M110.778 131.1H105.962V135.916H110.778V131.1Z" fill="white"/>
<path d="M115.595 131.1H110.778V135.916H115.595V131.1Z" fill="black"/>
<path d="M120.411 131.1H115.595V135.916H120.411V131.1Z" fill="white"/>
<path d="M125.227 131.1H120.411V135.916H125.227V131.1Z" fill="white"/>
<path d="M130.044 131.1H125.227V135.916H130.044V131.1Z" fill="white"/>
<path d="M134.86 131.1H130.044V135.916H134.86V131.1Z" fill="white"/>
<path d="M139.676 131.1H134.86V135.916H139.676V131.1Z" fill="white"/>
<path d="M144.493 131.1H139.677V135.916H144.493V131.1Z" fill="black"/>
<path d="M149.309 131.1H144.493V135.916H149.309V131.1Z" fill="black"/>
<path d="M14.4508 135.917H9.6344V140.733H14.4508V135.917Z" fill="black"/>
<path d="M19.2671 135.917H14.4507V140.733H19.2671V135.917Z" fill="white"/>
<path d="M24.0835 135.917H19.2672V140.733H24.0835V135.917Z" fill="black"/>
<path d="M28.8999 135.917H24.0835V140.733H28.8999V135.917Z" fill="black"/>
<path d="M33.7163 135.917H28.8999V140.733H33.7163V135.917Z" fill="black"/>
<path d="M38.5326 135.917H33.7162V140.733H38.5326V135.917Z" fill="white"/>
<path d="M43.349 135.917H38.5326V140.733H43.349V135.917Z" fill="black"/>
<path d="M48.1654 135.917H43.349V140.733H48.1654V135.917Z" fill="white"/>
<path d="M52.9818 135.917H48.1654V140.733H52.9818V135.917Z" fill="white"/>
<path d="M57.7981 135.917H52.9818V140.733H57.7981V135.917Z" fill="white"/>
<path d="M62.6145 135.917H57.7982V140.733H62.6145V135.917Z" fill="black"/>
<path d="M67.4309 135.917H62.6145V140.733H67.4309V135.917Z" fill="white"/>
<path d="M72.2473 135.917H67.4309V140.733H72.2473V135.917Z" fill="white"/>
<path d="M77.0637 135.917H72.2473V140.733H77.0637V135.917Z" fill="white"/>
<path d="M81.88 135.917H77.0636V140.733H81.88V135.917Z" fill="white"/>
<path d="M86.6964 135.917H81.8801V140.733H86.6964V135.917Z" fill="black"/>
<path d="M91.5127 135.917H86.6964V140.733H91.5127V135.917Z" fill="white"/>
<path d="M96.3291 135.917H91.5128V140.733H96.3291V135.917Z" fill="white"/>
<path d="M101.146 135.917H96.3292V140.733H101.146V135.917Z" fill="black"/>
<path d="M105.962 135.917H101.146V140.733H105.962V135.917Z" fill="white"/>
<path d="M110.778 135.917H105.962V140.733H110.778V135.917Z" fill="black"/>
<path d="M115.595 135.917H110.778V140.733H115.595V135.917Z" fill="black"/>
<path d="M120.411 135.917H115.595V140.733H120.411V135.917Z" fill="white"/>
<path d="M125.227 135.917H120.411V140.733H125.227V135.917Z" fill="black"/>
<path d="M130.044 135.917H125.227V140.733H130.044V135.917Z" fill="black"/>
<path d="M134.86 135.917H130.044V140.733H134.86V135.917Z" fill="white"/>
<path d="M139.676 135.917H134.86V140.733H139.676V135.917Z" fill="black"/>
<path d="M144.493 135.917H139.677V140.733H144.493V135.917Z" fill="black"/>
<path d="M149.309 135.917H144.493V140.733H149.309V135.917Z" fill="black"/>
<path d="M14.4508 140.733H9.6344V145.549H14.4508V140.733Z" fill="black"/>
<path d="M19.2671 140.733H14.4507V145.549H19.2671V140.733Z" fill="white"/>
<path d="M24.0835 140.733H19.2672V145.549H24.0835V140.733Z" fill="white"/>
<path d="M28.8999 140.733H24.0835V145.549H28.8999V140.733Z" fill="white"/>
<path d="M33.7163 140.733H28.8999V145.549H33.7163V140.733Z" fill="white"/>
<path d="M38.5326 140.733H33.7162V145.549H38.5326V140.733Z" fill="white"/>
<path d="M43.349 140.733H38.5326V145.549H43.349V140.733Z" fill="black"/>
<path d="M48.1654 140.733H43.349V145.549H48.1654V140.733Z" fill="white"/>
<path d="M52.9818 140.733H48.1654V145.549H52.9818V140.733Z" fill="black"/>
<path d="M57.7981 140.733H52.9818V145.549H57.7981V140.733Z" fill="white"/>
<path d="M62.6145 140.733H57.7982V145.549H62.6145V140.733Z" fill="black"/>
<path d="M67.4309 140.733H62.6145V145.549H67.4309V140.733Z" fill="white"/>
<path d="M72.2473 140.733H67.4309V145.549H72.2473V140.733Z" fill="white"/>
<path d="M77.0637 140.733H72.2473V145.549H77.0637V140.733Z" fill="white"/>
<path d="M81.88 140.733H77.0636V145.549H81.88V140.733Z" fill="black"/>
<path d="M86.6964 140.733H81.8801V145.549H86.6964V140.733Z" fill="black"/>
<path d="M91.5127 140.733H86.6964V145.549H91.5127V140.733Z" fill="white"/>
<path d="M96.3291 140.733H91.5128V145.549H96.3291V140.733Z" fill="white"/>
<path d="M101.146 140.733H96.3292V145.549H101.146V140.733Z" fill="white"/>
<path d="M105.962 140.733H101.146V145.549H105.962V140.733Z" fill="white"/>
<path d="M110.778 140.733H105.962V145.549H110.778V140.733Z" fill="white"/>
<path d="M115.595 140.733H110.778V145.549H115.595V140.733Z" fill="white"/>
<path d="M120.411 140.733H115.595V145.549H120.411V140.733Z" fill="white"/>
<path d="M125.227 140.733H120.411V145.549H125.227V140.733Z" fill="black"/>
<path d="M130.044 140.733H125.227V145.549H130.044V140.733Z" fill="white"/>
<path d="M134.86 140.733H130.044V145.549H134.86V140.733Z" fill="black"/>
<path d="M139.676 140.733H134.86V145.549H139.676V140.733Z" fill="black"/>
<path d="M144.493 140.733H139.677V145.549H144.493V140.733Z" fill="white"/>
<path d="M149.309 140.733H144.493V145.549H149.309V140.733Z" fill="black"/>
<path d="M14.4508 145.549H9.6344V150.365H14.4508V145.549Z" fill="black"/>
<path d="M19.2671 145.549H14.4507V150.365H19.2671V145.549Z" fill="black"/>
<path d="M24.0835 145.549H19.2672V150.365H24.0835V145.549Z" fill="black"/>
<path d="M28.8999 145.549H24.0835V150.365H28.8999V145.549Z" fill="black"/>
<path d="M33.7163 145.549H28.8999V150.365H33.7163V145.549Z" fill="black"/>
<path d="M38.5326 145.549H33.7162V150.365H38.5326V145.549Z" fill="black"/>
<path d="M43.349 145.549H38.5326V150.365H43.349V145.549Z" fill="black"/>
<path d="M48.1654 145.549H43.349V150.365H48.1654V145.549Z" fill="white"/>
<path d="M52.9818 145.549H48.1654V150.365H52.9818V145.549Z" fill="black"/>
<path d="M57.7981 145.549H52.9818V150.365H57.7981V145.549Z" fill="black"/>
<path d="M62.6145 145.549H57.7982V150.365H62.6145V145.549Z" fill="black"/>
<path d="M67.4309 145.549H62.6145V150.365H67.4309V145.549Z" fill="white"/>
<path d="M72.2473 145.549H67.4309V150.365H72.2473V145.549Z" fill="white"/>
<path d="M77.0637 145.549H72.2473V150.365H77.0637V145.549Z" fill="black"/>
<path d="M81.88 145.549H77.0636V150.365H81.88V145.549Z" fill="black"/>
<path d="M86.6964 145.549H81.8801V150.365H86.6964V145.549Z" fill="black"/>
<path d="M91.5127 145.549H86.6964V150.365H91.5127V145.549Z" fill="white"/>
<path d="M96.3291 145.549H91.5128V150.365H96.3291V145.549Z" fill="white"/>
<path d="M101.146 145.549H96.3292V150.365H101.146V145.549Z" fill="white"/>
<path d="M105.962 145.549H101.146V150.365H105.962V145.549Z" fill="black"/>
<path d="M110.778 145.549H105.962V150.365H110.778V145.549Z" fill="black"/>
<path d="M115.595 145.549H110.778V150.365H115.595V145.549Z" fill="white"/>
<path d="M120.411 145.549H115.595V150.365H120.411V145.549Z" fill="white"/>
<path d="M125.227 145.549H120.411V150.365H125.227V145.549Z" fill="white"/>
<path d="M130.044 145.549H125.227V150.365H130.044V145.549Z" fill="black"/>
<path d="M134.86 145.549H130.044V150.365H134.86V145.549Z" fill="white"/>
<path d="M139.676 145.549H134.86V150.365H139.676V145.549Z" fill="white"/>
<path d="M144.493 145.549H139.677V150.365H144.493V145.549Z" fill="white"/>
<path d="M149.309 145.549H144.493V150.365H149.309V145.549Z" fill="white"/>
</g>
<path d="M82.7862 169.32C81.2388 170.227 78.7612 170.227 77.2137 169.32L51.2008 154.075C51.2008 153 50.4235 152 53.9871 152L106.013 152C109.577 152 108.799 153 108.799 154.075L82.7862 169.32Z" fill="white"/>
</svg>
