<svg width="157" height="46" viewBox="0 0 157 46" fill="none" xmlns="http://www.w3.org/2000/svg">
<path d="M151.5 46H4.9C2.2 46 0 43.8 0 41.1V4.9C0 2.2 2.2 0 4.9 0H151.5C154.2 0 156.4 2.2 156.4 4.9V41.1C156.4 43.8 154.2 46 151.5 46Z" fill="black"/>
<path d="M28.1 22.2H12.9V6.90002H28.2V22.2H28.1Z" fill="#F1511B"/>
<path d="M45 22.2H29.7V6.90002H45V22.2Z" fill="#80CC28"/>
<path d="M28.1 39H12.9V23.8H28.2V39H28.1Z" fill="#00ADEF"/>
<path d="M45 39H29.7V23.8H45V39Z" fill="#FBBC09"/>
<path d="M143.5 29.5V27.3H140.8V23.9H140.7L138.1 24.7H138V27.3H133.9V25.8C133.9 25.1 134.1 24.6 134.3 24.3C134.6 24 135 23.8 135.6 23.8C136 23.8 136.4 23.9 136.8 24.1H136.9V21.8C136.5 21.7 136 21.6 135.4 21.6C134.6 21.6 133.9 21.8 133.2 22.1C132.6 22.4 132.1 22.9 131.7 23.6C131.4 24.2 131.2 25 131.2 25.8V27.4H129.3V29.6H131.2V38.9H133.9V29.6H138V35.5C138 37.9 139.1 39.2 141.4 39.2C141.8 39.2 142.2 39.2 142.6 39.1C143 39 143.3 38.9 143.4 38.8V36.6L143.3 36.7C143.2 36.8 143 36.9 142.7 36.9C142.5 37 142.3 37 142.2 37C141.7 37 141.3 36.9 141 36.6C140.8 36.3 140.6 35.8 140.6 35.1V29.7H143.5V29.5ZM123.2 36.8C122.2 36.8 121.4 36.5 120.9 35.8C120.3 35.1 120.1 34.2 120.1 33C120.1 31.8 120.4 30.8 120.9 30.2C121.5 29.5 122.2 29.2 123.2 29.2C124.2 29.2 124.9 29.5 125.5 30.2C126 30.8 126.3 31.8 126.3 33C126.3 34.3 126 35.2 125.5 35.9C125 36.5 124.2 36.8 123.2 36.8ZM123.3 27C121.4 27 119.9 27.6 118.8 28.7C117.7 29.8 117.2 31.3 117.2 33.2C117.2 35 117.7 36.5 118.8 37.5C119.8 38.6 121.3 39.1 123 39.1C124.8 39.1 126.3 38.5 127.4 37.4C128.5 36.3 129 34.8 129 32.9C129 31.1 128.5 29.6 127.5 28.6C126.6 27.5 125.1 27 123.3 27ZM112.8 27C111.5 27 110.4 27.3 109.6 28C108.8 28.7 108.4 29.5 108.4 30.6C108.4 31.1 108.5 31.6 108.7 32C108.9 32.4 109.2 32.8 109.5 33.1C109.9 33.4 110.4 33.7 111.2 34C111.8 34.3 112.3 34.5 112.6 34.6C112.9 34.8 113.1 34.9 113.2 35.1C113.3 35.3 113.4 35.5 113.4 35.8C113.4 36.6 112.8 37 111.6 37C111.2 37 110.7 36.9 110.1 36.7C109.6 36.5 109 36.3 108.6 35.9L108.5 35.8V38.4C108.9 38.6 109.4 38.7 110 38.8C110.6 38.9 111.1 39 111.6 39C113 39 114.1 38.7 115 38C115.8 37.3 116.2 36.5 116.2 35.4C116.2 34.6 116 34 115.5 33.4C115.1 32.9 114.3 32.4 113.2 31.9C112.3 31.6 111.8 31.3 111.6 31.1C111.4 30.9 111.3 30.6 111.3 30.2C111.3 29.9 111.4 29.6 111.7 29.4C112 29.2 112.4 29.1 112.9 29.1C113.4 29.1 113.8 29.2 114.3 29.3C114.8 29.4 115.2 29.6 115.5 29.9L115.6 30V27.5C115.3 27.4 114.9 27.2 114.4 27.2C113.7 27.1 113.2 27 112.8 27ZM101.2 36.8C100.2 36.8 99.4 36.5 98.9 35.8C98.3 35.1 98.1 34.2 98.1 33C98.1 31.8 98.4 30.8 98.9 30.2C99.5 29.5 100.2 29.2 101.2 29.2C102.2 29.2 102.9 29.5 103.5 30.2C104 30.8 104.3 31.8 104.3 33C104.3 34.3 104 35.2 103.5 35.9C103 36.5 102.2 36.8 101.2 36.8ZM101.4 27C99.5 27 98 27.6 96.9 28.7C95.8 29.8 95.3 31.3 95.3 33.2C95.3 35 95.8 36.5 96.9 37.5C97.9 38.6 99.4 39.1 101.1 39.1C102.9 39.1 104.4 38.5 105.5 37.4C106.6 36.3 107.1 34.8 107.1 32.9C107.1 31.1 106.6 29.6 105.6 28.6C104.6 27.5 103.2 27 101.4 27ZM91.1 29.3V27.3H88.4V38.8H91.1V32.9C91.1 31.9 91.3 31.1 91.8 30.5C92.2 29.9 92.8 29.6 93.6 29.6C93.8 29.6 94.1 29.6 94.4 29.7C94.7 29.8 94.9 29.9 95 30L95.1 30.1V27.4C94.8 27.3 94.5 27.2 94 27.2C93.3 27.2 92.7 27.4 92.2 27.8C91.7 28.1 91.4 28.6 91.1 29.3ZM83.5 27C82.3 27 81.1 27.3 80.2 27.8C79.3 28.3 78.5 29.1 78 30C77.5 31 77.3 32.1 77.3 33.3C77.3 34.4 77.5 35.4 78 36.3C78.5 37.2 79.2 37.9 80 38.4C80.9 38.9 81.9 39.1 83 39.1C84.3 39.1 85.4 38.8 86.3 38.3V35.8L86.2 35.9C85.8 36.2 85.4 36.4 84.9 36.6C84.4 36.8 84 36.9 83.6 36.9C82.5 36.9 81.7 36.6 81.1 35.9C80.5 35.2 80.2 34.3 80.2 33.2C80.2 32 80.5 31.1 81.2 30.4C81.8 29.7 82.7 29.4 83.7 29.4C84.6 29.4 85.5 29.7 86.3 30.3L86.4 30.4V27.8C86.1 27.6 85.7 27.5 85.1 27.4C84.5 27.1 84 27 83.5 27ZM75.4 27.3H72.7V38.8H75.4V27.3ZM74.1 22.4C73.7 22.4 73.3 22.6 72.9 22.9C72.6 23.2 72.4 23.6 72.4 24C72.4 24.4 72.6 24.8 72.9 25.1C73.2 25.4 73.6 25.5 74.1 25.5C74.6 25.5 74.9 25.4 75.3 25.1C75.6 24.8 75.8 24.4 75.8 24C75.8 23.6 75.6 23.2 75.3 22.9C75 22.5 74.6 22.4 74.1 22.4ZM67.4 26.4V38.8H70.2V22.7H66.4L61.5 34.6L56.7 22.7H52.7V38.8H55.3V26.4H55.4L60.4 38.8H62.4L67.4 26.4Z" fill="white"/>
<path d="M56.4 15.3C54.1 15.3 52.7 13.6 52.7 11.1C52.7 8.60003 54.1 6.90002 56.4 6.90002C58.2 6.90002 59.5 7.90003 59.8 9.60003H58.7C58.4 8.50003 57.5 7.90002 56.4 7.90002C54.7 7.90002 53.7 9.10003 53.7 11.1C53.7 13.1 54.7 14.4 56.4 14.4C57.8 14.4 58.8 13.5 58.8 12.1V12H56.5V11H59.8V11.8C59.9 14 58.6 15.3 56.4 15.3Z" fill="white"/>
<path d="M66.6 13.5001C66.4 14.5001 65.4 15.3001 64.2 15.3001C62.5 15.3001 61.5 14.1001 61.5 12.3001C61.5 10.5001 62.5 9.20007 64.2 9.20007C65.8 9.20007 66.8 10.4001 66.8 12.1001V12.5001H62.6V12.6001C62.6 13.7001 63.3 14.5001 64.3 14.5001C65 14.5001 65.6 14.1001 65.8 13.6001H66.6V13.5001ZM62.5 11.7001H65.7C65.7 10.7001 65.1 10.0001 64.1 10.0001C63.2 10.1001 62.6 10.8001 62.5 11.7001Z" fill="white"/>
<path d="M69.7 7.90002V9.30002H70.8V10.1H69.7V13.6C69.7 14.1 69.9 14.4 70.4 14.4C70.5 14.4 70.7 14.4 70.8 14.4V15.2C70.7 15.2 70.4 15.2 70.2 15.2C69.1 15.2 68.7 14.8 68.7 13.6V10.1H67.8V9.30002H68.7V7.90002H69.7Z" fill="white"/>
<path d="M75.6 7.69998C75.6 7.39998 75.9 7.09998 76.2 7.09998C76.5 7.09998 76.8 7.39998 76.8 7.69998C76.8 7.99998 76.5 8.29998 76.2 8.29998C75.9 8.29998 75.6 8.09998 75.6 7.69998ZM75.8 9.29998H76.8V15.2H75.8V9.29998Z" fill="white"/>
<path d="M80.1 7.90002V9.30002H81.2V10.1H80.1V13.6C80.1 14.1 80.3 14.4 80.8 14.4C80.9 14.4 81.1 14.4 81.2 14.4V15.2C81.1 15.2 80.8 15.2 80.6 15.2C79.5 15.2 79.1 14.8 79.1 13.6V10.1H78.2V9.30002H79.1V7.90002H80.1Z" fill="white"/>
<path d="M86.4 10.1H85.6V9.30002H86.4V8.60003C86.4 7.50003 86.9 6.90002 88 6.90002C88.2 6.90002 88.5 6.90002 88.6 6.90002V7.70002C88.5 7.70002 88.3 7.70002 88.2 7.70002C87.7 7.70002 87.4 8.00003 87.4 8.60003V9.20002H88.6V10H87.4V15.1H86.4V10.1Z" fill="white"/>
<path d="M90.3 9.30007H91.2V10.3001C91.4 9.70007 91.9 9.20007 92.6 9.20007C92.8 9.20007 92.9 9.20007 93 9.20007V10.2001C92.9 10.2001 92.7 10.1001 92.5 10.1001C91.7 10.1001 91.2 10.6001 91.2 11.5001V15.2001H90.2V9.30007H90.3Z" fill="white"/>
<path d="M94 12.3C94 10.4 95.1 9.30005 96.7 9.30005C98.3 9.30005 99.4 10.5 99.4 12.3C99.4 14.2 98.3 15.3 96.7 15.3C95.1 15.3 94 14.1 94 12.3ZM98.5 12.3C98.5 10.9 97.8 10.1 96.8 10.1C95.8 10.1 95.1 10.9 95.1 12.3C95.1 13.7 95.8 14.5 96.8 14.5C97.8 14.5 98.5 13.6 98.5 12.3Z" fill="white"/>
<path d="M101.2 9.30007H102.1V10.2001C102.4 9.60007 103 9.20007 103.8 9.20007C104.6 9.20007 105.2 9.60007 105.4 10.3001C105.7 9.60007 106.4 9.20007 107.2 9.20007C108.4 9.20007 109.1 10.0001 109.1 11.1001V15.1001H108.1V11.3001C108.1 10.5001 107.7 10.0001 106.9 10.0001C106.1 10.0001 105.6 10.6001 105.6 11.4001V15.1001H104.6V11.2001C104.6 10.5001 104.1 10.0001 103.4 10.0001C102.6 10.0001 102.1 10.6001 102.1 11.4001V15.1001H101.1V9.30007H101.2Z" fill="white"/>
</svg>
